<svg width="1148" height="124" viewBox="0 0 1148 124" fill="none" xmlns="http://www.w3.org/2000/svg">
<path d="M58.375 96H10.3125V86.25H58.375V96ZM12.6875 96H0.5625V5H12.6875V96ZM52 53.875H10.3125V44.125H52V53.875ZM57.75 14.8125H10.3125V5H57.75V14.8125ZM83.1875 96H71.5V28.375H82.5625L83.1875 42.8125V96ZM75.5625 59.375C75.6458 53.2083 76.8333 47.7083 79.125 42.875C81.4167 38 84.6042 34.1667 88.6875 31.375C92.8125 28.5417 97.6042 27.125 103.062 27.125C107.521 27.125 111.354 27.9583 114.562 29.625C117.812 31.25 120.312 33.8542 122.062 37.4375C123.854 41.0208 124.75 45.7708 124.75 51.6875V96H113.062V51.5625C113.062 48.0208 112.542 45.1667 111.5 43C110.5 40.8333 109 39.2708 107 38.3125C105 37.3125 102.542 36.8125 99.625 36.8125C96.75 36.8125 94.1458 37.4167 91.8125 38.625C89.4792 39.8333 87.4583 41.5 85.75 43.625C84.0417 45.75 82.7292 48.1875 81.8125 50.9375C80.8958 53.6458 80.4375 56.5208 80.4375 59.5625L75.5625 59.375ZM170.688 37.1875H134.062V28.375H170.688V37.1875ZM158.062 11.9375V79.25C158.062 81.5833 158.417 83.3333 159.125 84.5C159.833 85.6667 160.75 86.4375 161.875 86.8125C163 87.1875 164.208 87.375 165.5 87.375C166.458 87.375 167.458 87.2917 168.5 87.125C169.583 86.9583 170.375 86.8125 170.875 86.6875L170.938 96C170.021 96.2917 168.812 96.5625 167.312 96.8125C165.854 97.1042 164.083 97.25 162 97.25C159.167 97.25 156.562 96.6875 154.188 95.5625C151.812 94.4375 149.917 92.5625 148.5 89.9375C147.083 87.2708 146.375 83.6875 146.375 79.1875V11.9375H158.062ZM212.25 97.25C205.958 97.25 200.479 95.8542 195.812 93.0625C191.188 90.2292 187.583 86.3542 185 81.4375C182.458 76.5208 181.188 70.8958 181.188 64.5625V61.875C181.188 54.5417 182.583 48.2917 185.375 43.125C188.208 37.9167 191.875 33.9583 196.375 31.25C200.917 28.5 205.708 27.125 210.75 27.125C217.25 27.125 222.542 28.5833 226.625 31.5C230.75 34.375 233.771 38.3125 235.688 43.3125C237.646 48.2708 238.625 53.8958 238.625 60.1875V65.375H188.125V56H226.938V55.125C226.771 52.125 226.167 49.2083 225.125 46.375C224.083 43.5 222.417 41.1458 220.125 39.3125C217.833 37.4375 214.708 36.5 210.75 36.5C207.25 36.5 204.146 37.5 201.438 39.5C198.771 41.4583 196.667 44.3333 195.125 48.125C193.625 51.875 192.875 56.4583 192.875 61.875V64.5625C192.875 68.8542 193.667 72.7708 195.25 76.3125C196.833 79.8125 199.125 82.625 202.125 84.75C205.125 86.8333 208.708 87.875 212.875 87.875C216.958 87.875 220.417 87.0417 223.25 85.375C226.083 83.7083 228.562 81.4792 230.688 78.6875L237.75 84.1875C235.583 87.5208 232.458 90.5417 228.375 93.25C224.333 95.9167 218.958 97.25 212.25 97.25ZM263.812 96H252.125V28.375H263.5L263.812 39V96ZM284.875 38.6875C283.875 38.4792 282.938 38.3542 282.062 38.3125C281.229 38.2292 280.271 38.1875 279.188 38.1875C275.646 38.1875 272.646 38.9167 270.188 40.375C267.771 41.8333 265.896 43.8542 264.562 46.4375C263.229 48.9792 262.396 51.8958 262.062 55.1875L258.75 57.0625C258.75 51.6042 259.479 46.625 260.938 42.125C262.396 37.5833 264.667 33.9583 267.75 31.25C270.875 28.5 274.875 27.125 279.75 27.125C280.542 27.125 281.479 27.2292 282.562 27.4375C283.688 27.6042 284.458 27.7917 284.875 28V38.6875ZM365.062 28.375H377.5L350.375 106.438C349.75 108.104 348.917 109.896 347.875 111.812C346.875 113.771 345.583 115.625 344 117.375C342.458 119.125 340.562 120.542 338.312 121.625C336.062 122.75 333.396 123.312 330.312 123.312C329.688 123.312 328.938 123.25 328.062 123.125C327.188 123 326.354 122.854 325.562 122.688C324.771 122.562 324.167 122.438 323.75 122.312V113C324.083 113.042 324.604 113.104 325.312 113.188C326.062 113.271 326.583 113.312 326.875 113.312C330.792 113.312 333.854 112.5 336.062 110.875C338.271 109.25 340.062 106.354 341.438 102.188L346.25 89L365.062 28.375ZM350.062 80.9375L353.062 93.125L344.688 97.3125L319.875 28.375H332.625L350.062 80.9375ZM384.875 61.5C384.875 54.9583 386.125 49.1042 388.625 43.9375C391.125 38.7708 394.667 34.6875 399.25 31.6875C403.833 28.6458 409.271 27.125 415.562 27.125C421.938 27.125 427.438 28.6458 432.062 31.6875C436.688 34.6875 440.229 38.7708 442.688 43.9375C445.188 49.1042 446.438 54.9583 446.438 61.5V62.9375C446.438 69.4375 445.188 75.2917 442.688 80.5C440.229 85.6667 436.688 89.75 432.062 92.75C427.479 95.75 422.021 97.25 415.688 97.25C409.354 97.25 403.875 95.75 399.25 92.75C394.667 89.75 391.125 85.6667 388.625 80.5C386.125 75.2917 384.875 69.4375 384.875 62.9375V61.5ZM396.562 62.9375C396.562 67.3958 397.271 71.5208 398.688 75.3125C400.104 79.1042 402.208 82.1458 405 84.4375C407.833 86.7292 411.396 87.875 415.688 87.875C419.938 87.875 423.458 86.7292 426.25 84.4375C429.083 82.1458 431.208 79.1042 432.625 75.3125C434.042 71.5208 434.75 67.3958 434.75 62.9375V61.5C434.75 57.0417 434.042 52.9167 432.625 49.125C431.208 45.3333 429.083 42.2917 426.25 40C423.417 37.6667 419.854 36.5 415.562 36.5C411.354 36.5 407.833 37.6667 405 40C402.167 42.2917 400.042 45.3333 398.625 49.125C397.25 52.9167 396.562 57.0417 396.562 61.5V62.9375ZM502.375 28.375H514.062V96H502.938L502.375 80.375V28.375ZM509.438 66C509.438 72 508.583 77.3542 506.875 82.0625C505.167 86.7708 502.375 90.4792 498.5 93.1875C494.625 95.8958 489.438 97.25 482.938 97.25C476.312 97.25 470.958 95.2917 466.875 91.375C462.792 87.4583 460.75 81 460.75 72V28.375H472.438V72.125C472.438 76.2083 473.021 79.375 474.188 81.625C475.396 83.8333 476.938 85.375 478.812 86.25C480.729 87.0833 482.729 87.5 484.812 87.5C489.729 87.5 493.625 86.5625 496.5 84.6875C499.375 82.7708 501.438 80.1875 502.688 76.9375C503.938 73.6875 504.562 70.0833 504.562 66.125L509.438 66ZM543.312 96H531.625V28.375H543L543.312 39V96ZM564.375 38.6875C563.375 38.4792 562.438 38.3542 561.562 38.3125C560.729 38.2292 559.771 38.1875 558.688 38.1875C555.146 38.1875 552.146 38.9167 549.688 40.375C547.271 41.8333 545.396 43.8542 544.062 46.4375C542.729 48.9792 541.896 51.8958 541.562 55.1875L538.25 57.0625C538.25 51.6042 538.979 46.625 540.438 42.125C541.896 37.5833 544.167 33.9583 547.25 31.25C550.375 28.5 554.375 27.125 559.25 27.125C560.042 27.125 560.979 27.2292 562.062 27.4375C563.188 27.6042 563.958 27.7917 564.375 28V38.6875ZM618.438 122H606.75V28.375H617.375L618.438 41.375V122ZM663.938 62.9375C663.938 69.5208 662.917 75.3958 660.875 80.5625C658.833 85.7292 655.854 89.8125 651.938 92.8125C648.062 95.7708 643.333 97.25 637.75 97.25C631.958 97.25 627.104 96 623.188 93.5C619.271 91 616.208 87.4583 614 82.875C611.792 78.25 610.354 72.7917 609.688 66.5V59.25C610.354 52.625 611.792 46.9167 614 42.125C616.25 37.3333 619.312 33.6458 623.188 31.0625C627.104 28.4375 631.896 27.125 637.562 27.125C643.229 27.125 648.021 28.5625 651.938 31.4375C655.854 34.3125 658.833 38.3542 660.875 43.5625C662.917 48.7292 663.938 54.75 663.938 61.625V62.9375ZM652.25 61.625C652.25 57.125 651.604 53 650.312 49.25C649.062 45.4583 647.083 42.4375 644.375 40.1875C641.708 37.9375 638.271 36.8125 634.062 36.8125C631.188 36.8125 628.688 37.3125 626.562 38.3125C624.438 39.3125 622.625 40.6667 621.125 42.375C619.625 44.0417 618.396 45.9583 617.438 48.125C616.521 50.25 615.833 52.4583 615.375 54.75V71.0625C616.208 73.9792 617.354 76.7292 618.812 79.3125C620.312 81.8542 622.292 83.9167 624.75 85.5C627.25 87.0833 630.396 87.875 634.188 87.875C638.354 87.875 641.771 86.7292 644.438 84.4375C647.104 82.1458 649.062 79.125 650.312 75.375C651.604 71.5833 652.25 67.4375 652.25 62.9375V61.625ZM718.5 49.625C718.5 45.5833 717.292 42.375 714.875 40C712.5 37.5833 708.979 36.375 704.312 36.375C701.438 36.375 698.896 36.875 696.688 37.875C694.521 38.875 692.833 40.1875 691.625 41.8125C690.417 43.4375 689.812 45.2083 689.812 47.125H678.125C678.125 43.875 679.229 40.7292 681.438 37.6875C683.646 34.6042 686.75 32.0833 690.75 30.125C694.792 28.125 699.542 27.125 705 27.125C709.917 27.125 714.271 27.9583 718.062 29.625C721.854 31.2917 724.812 33.8125 726.938 37.1875C729.104 40.5208 730.188 44.7083 730.188 49.75V81.25C730.188 83.5 730.375 85.8958 730.75 88.4375C731.167 90.9792 731.771 93.1667 732.562 95V96H720.375C719.792 94.6667 719.333 92.8958 719 90.6875C718.667 88.4375 718.5 86.3542 718.5 84.4375V49.625ZM720.625 63.125H709C702.417 63.125 697.333 64.1667 693.75 66.25C690.167 68.3333 688.375 71.4583 688.375 75.625C688.375 78.875 689.458 81.625 691.625 83.875C693.833 86.125 697.042 87.25 701.25 87.25C704.792 87.25 707.917 86.5 710.625 85C713.333 83.5 715.479 81.6458 717.062 79.4375C718.646 77.2292 719.5 75.1042 719.625 73.0625L724.625 78.625C724.333 80.375 723.542 82.3125 722.25 84.4375C720.958 86.5625 719.229 88.6042 717.062 90.5625C714.938 92.4792 712.396 94.0833 709.438 95.375C706.521 96.625 703.229 97.25 699.562 97.25C694.979 97.25 690.958 96.375 687.5 94.625C684.083 92.8333 681.417 90.4167 679.5 87.375C677.625 84.3333 676.688 80.9583 676.688 77.25C676.688 69.9583 679.438 64.4375 684.938 60.6875C690.438 56.8958 697.833 55 707.125 55H720.5L720.625 63.125ZM787.75 78.0625C787.75 76.3958 787.375 74.8542 786.625 73.4375C785.917 71.9792 784.458 70.6667 782.25 69.5C780.042 68.2917 776.708 67.2292 772.25 66.3125C767.25 65.2708 762.917 63.9583 759.25 62.375C755.625 60.75 752.812 58.6875 750.812 56.1875C748.854 53.6875 747.875 50.5833 747.875 46.875C747.875 43.2917 748.896 40.0208 750.938 37.0625C753.021 34.0625 755.938 31.6667 759.688 29.875C763.479 28.0417 767.896 27.125 772.938 27.125C778.354 27.125 782.979 28.0833 786.812 30C790.688 31.875 793.646 34.4167 795.688 37.625C797.729 40.7917 798.75 44.3125 798.75 48.1875H787.062C787.062 45.3958 785.833 42.75 783.375 40.25C780.958 37.75 777.479 36.5 772.938 36.5C769.771 36.5 767.188 37 765.188 38C763.229 38.9583 761.792 40.2083 760.875 41.75C760 43.25 759.562 44.8333 759.562 46.5C759.562 48.1667 759.979 49.625 760.812 50.875C761.646 52.0833 763.167 53.1667 765.375 54.125C767.625 55.0833 770.875 56.0417 775.125 57C780.667 58.25 785.229 59.75 788.812 61.5C792.396 63.25 795.062 65.3958 796.812 67.9375C798.562 70.4792 799.438 73.5833 799.438 77.25C799.438 81.1667 798.354 84.6458 796.188 87.6875C794.021 90.6875 790.979 93.0417 787.062 94.75C783.146 96.4167 778.542 97.25 773.25 97.25C767.292 97.25 762.25 96.1875 758.125 94.0625C754 91.9375 750.875 89.2083 748.75 85.875C746.625 82.5 745.562 78.9375 745.562 75.1875H757.25C757.458 78.3542 758.375 80.875 760 82.75C761.667 84.5833 763.688 85.8958 766.062 86.6875C768.479 87.4792 770.875 87.875 773.25 87.875C776.417 87.875 779.062 87.4583 781.188 86.625C783.354 85.75 784.979 84.5833 786.062 83.125C787.188 81.625 787.75 79.9375 787.75 78.0625ZM853.875 78.0625C853.875 76.3958 853.5 74.8542 852.75 73.4375C852.042 71.9792 850.583 70.6667 848.375 69.5C846.167 68.2917 842.833 67.2292 838.375 66.3125C833.375 65.2708 829.042 63.9583 825.375 62.375C821.75 60.75 818.938 58.6875 816.938 56.1875C814.979 53.6875 814 50.5833 814 46.875C814 43.2917 815.021 40.0208 817.062 37.0625C819.146 34.0625 822.062 31.6667 825.812 29.875C829.604 28.0417 834.021 27.125 839.062 27.125C844.479 27.125 849.104 28.0833 852.938 30C856.812 31.875 859.771 34.4167 861.812 37.625C863.854 40.7917 864.875 44.3125 864.875 48.1875H853.188C853.188 45.3958 851.958 42.75 849.5 40.25C847.083 37.75 843.604 36.5 839.062 36.5C835.896 36.5 833.312 37 831.312 38C829.354 38.9583 827.917 40.2083 827 41.75C826.125 43.25 825.688 44.8333 825.688 46.5C825.688 48.1667 826.104 49.625 826.938 50.875C827.771 52.0833 829.292 53.1667 831.5 54.125C833.75 55.0833 837 56.0417 841.25 57C846.792 58.25 851.354 59.75 854.938 61.5C858.521 63.25 861.188 65.3958 862.938 67.9375C864.688 70.4792 865.562 73.5833 865.562 77.25C865.562 81.1667 864.479 84.6458 862.312 87.6875C860.146 90.6875 857.104 93.0417 853.188 94.75C849.271 96.4167 844.667 97.25 839.375 97.25C833.417 97.25 828.375 96.1875 824.25 94.0625C820.125 91.9375 817 89.2083 814.875 85.875C812.75 82.5 811.688 78.9375 811.688 75.1875H823.375C823.583 78.3542 824.5 80.875 826.125 82.75C827.792 84.5833 829.812 85.8958 832.188 86.6875C834.604 87.4792 837 87.875 839.375 87.875C842.542 87.875 845.188 87.4583 847.312 86.625C849.479 85.75 851.104 84.5833 852.188 83.125C853.312 81.625 853.875 79.9375 853.875 78.0625ZM915.125 28.375H922.812L921.312 39.5L903.625 96H896.188L897.75 83.875L915.125 28.375ZM901 84.5L902 96H894.188L874.562 28.375H886.188L901 84.5ZM953.5 28.375H965.062L945.438 96H937.688L939.375 84.125L953.5 28.375ZM941.562 83L943.438 96H936L917.812 39.375L916.375 28.375H924.562L941.562 83ZM973.875 61.5C973.875 54.9583 975.125 49.1042 977.625 43.9375C980.125 38.7708 983.667 34.6875 988.25 31.6875C992.833 28.6458 998.271 27.125 1004.56 27.125C1010.94 27.125 1016.44 28.6458 1021.06 31.6875C1025.69 34.6875 1029.23 38.7708 1031.69 43.9375C1034.19 49.1042 1035.44 54.9583 1035.44 61.5V62.9375C1035.44 69.4375 1034.19 75.2917 1031.69 80.5C1029.23 85.6667 1025.69 89.75 1021.06 92.75C1016.48 95.75 1011.02 97.25 1004.69 97.25C998.354 97.25 992.875 95.75 988.25 92.75C983.667 89.75 980.125 85.6667 977.625 80.5C975.125 75.2917 973.875 69.4375 973.875 62.9375V61.5ZM985.562 62.9375C985.562 67.3958 986.271 71.5208 987.688 75.3125C989.104 79.1042 991.208 82.1458 994 84.4375C996.833 86.7292 1000.4 87.875 1004.69 87.875C1008.94 87.875 1012.46 86.7292 1015.25 84.4375C1018.08 82.1458 1020.21 79.1042 1021.62 75.3125C1023.04 71.5208 1023.75 67.3958 1023.75 62.9375V61.5C1023.75 57.0417 1023.04 52.9167 1021.62 49.125C1020.21 45.3333 1018.08 42.2917 1015.25 40C1012.42 37.6667 1008.85 36.5 1004.56 36.5C1000.35 36.5 996.833 37.6667 994 40C991.167 42.2917 989.042 45.3333 987.625 49.125C986.25 52.9167 985.562 57.0417 985.562 61.5V62.9375ZM1061.69 96H1050V28.375H1061.38L1061.69 39V96ZM1082.75 38.6875C1081.75 38.4792 1080.81 38.3542 1079.94 38.3125C1079.1 38.2292 1078.15 38.1875 1077.06 38.1875C1073.52 38.1875 1070.52 38.9167 1068.06 40.375C1065.65 41.8333 1063.77 43.8542 1062.44 46.4375C1061.1 48.9792 1060.27 51.8958 1059.94 55.1875L1056.62 57.0625C1056.62 51.6042 1057.35 46.625 1058.81 42.125C1060.27 37.5833 1062.54 33.9583 1065.62 31.25C1068.75 28.5 1072.75 27.125 1077.62 27.125C1078.42 27.125 1079.35 27.2292 1080.44 27.4375C1081.56 27.6042 1082.33 27.7917 1082.75 28V38.6875ZM1136 0H1147.69V96H1137L1136 82.875V0ZM1090.56 61.625C1090.56 54.75 1091.67 48.7292 1093.88 43.5625C1096.12 38.3542 1099.25 34.3125 1103.25 31.4375C1107.25 28.5625 1111.94 27.125 1117.31 27.125C1122.98 27.125 1127.71 28.4375 1131.5 31.0625C1135.29 33.6458 1138.25 37.3333 1140.38 42.125C1142.54 46.9167 1143.94 52.625 1144.56 59.25V65.3125C1143.94 71.8542 1142.56 77.5208 1140.44 82.3125C1138.31 87.0625 1135.33 90.75 1131.5 93.375C1127.71 95.9583 1122.94 97.25 1117.19 97.25C1111.9 97.25 1107.25 95.7708 1103.25 92.8125C1099.25 89.8125 1096.12 85.7292 1093.88 80.5625C1091.67 75.3958 1090.56 69.5208 1090.56 62.9375V61.625ZM1102.25 62.9375C1102.25 67.4375 1102.85 71.5417 1104.06 75.25C1105.31 78.9583 1107.25 81.9375 1109.88 84.1875C1112.5 86.3958 1115.9 87.5 1120.06 87.5C1123.9 87.5 1127.04 86.6875 1129.5 85.0625C1132 83.4375 1134 81.2917 1135.5 78.625C1137 75.9583 1138.17 73.0625 1139 69.9375V54.75C1138.5 52.4583 1137.77 50.25 1136.81 48.125C1135.9 45.9583 1134.69 44.0417 1133.19 42.375C1131.73 40.6667 1129.92 39.3125 1127.75 38.3125C1125.62 37.3125 1123.1 36.8125 1120.19 36.8125C1115.98 36.8125 1112.54 37.9375 1109.88 40.1875C1107.25 42.4375 1105.31 45.4583 1104.06 49.25C1102.85 53 1102.25 57.125 1102.25 61.625V62.9375Z" fill="#ECECEC"/>
</svg>
