<svg width="574" height="185" viewBox="0 0 574 185" fill="none" xmlns="http://www.w3.org/2000/svg">
<rect x="5.5" y="5.5" width="563" height="174" rx="18.5" stroke="#ECECEC" stroke-width="11"/>
<path d="M151 111C151 108.125 150.396 105.688 149.188 103.688C147.979 101.688 145.812 99.875 142.688 98.25C139.562 96.625 135.125 94.9792 129.375 93.3125C124.875 92.0208 120.812 90.5625 117.188 88.9375C113.604 87.2708 110.521 85.375 107.938 83.25C105.354 81.125 103.375 78.6875 102 75.9375C100.625 73.1875 99.9375 70.0417 99.9375 66.5C99.9375 61.75 101.208 57.5208 103.75 53.8125C106.333 50.0625 109.938 47.125 114.562 45C119.188 42.8333 124.604 41.75 130.812 41.75C137.688 41.75 143.521 43.0625 148.312 45.6875C153.104 48.2708 156.75 51.6667 159.25 55.875C161.75 60.0417 163 64.5 163 69.25H150.812C150.812 65.8333 150.083 62.7917 148.625 60.125C147.208 57.4583 145.021 55.375 142.062 53.875C139.104 52.3333 135.354 51.5625 130.812 51.5625C126.562 51.5625 123.042 52.2083 120.25 53.5C117.5 54.7917 115.458 56.5417 114.125 58.75C112.792 60.9583 112.125 63.4792 112.125 66.3125C112.125 68.8542 112.854 71.125 114.312 73.125C115.771 75.0833 118.062 76.8542 121.188 78.4375C124.312 80.0208 128.354 81.5208 133.312 82.9375C140.188 84.8542 145.833 87.0833 150.25 89.625C154.667 92.1667 157.917 95.1667 160 98.625C162.125 102.083 163.188 106.167 163.188 110.875C163.188 115.792 161.875 120.083 159.25 123.75C156.625 127.417 152.938 130.25 148.188 132.25C143.438 134.25 137.854 135.25 131.438 135.25C127.229 135.25 123.083 134.667 119 133.5C114.958 132.333 111.271 130.583 107.938 128.25C104.646 125.917 102 123.042 100 119.625C98.0417 116.167 97.0625 112.167 97.0625 107.625H109.188C109.188 110.75 109.792 113.438 111 115.688C112.208 117.938 113.854 119.792 115.938 121.25C118.021 122.708 120.396 123.792 123.062 124.5C125.729 125.167 128.521 125.5 131.438 125.5C135.646 125.5 139.188 124.917 142.062 123.75C144.979 122.542 147.188 120.854 148.688 118.688C150.229 116.521 151 113.958 151 111ZM236.375 134H188.312V124.25H236.375V134ZM190.688 134H178.562V43H190.688V134ZM230 91.875H188.312V82.125H230V91.875ZM235.75 52.8125H188.312V43H235.75V52.8125ZM321.312 134H309.125L263.438 63.625V134H251.312V43H263.438L309.312 113.562V43H321.312V134ZM348.312 134L348.438 124.25H367.312C373.771 124.25 379.167 122.896 383.5 120.188C387.833 117.438 391.083 113.604 393.25 108.688C395.458 103.729 396.562 97.9167 396.562 91.25V85.625C396.562 78.6667 395.458 72.75 393.25 67.875C391.083 63 387.896 59.2708 383.688 56.6875C379.479 54.1042 374.375 52.8125 368.375 52.8125H347.938V43H368.375C376.375 43 383.375 44.75 389.375 48.25C395.417 51.7083 400.125 56.6458 403.5 63.0625C406.875 69.4375 408.562 77 408.562 85.75V91.25C408.562 100.042 406.875 107.625 403.5 114C400.125 120.375 395.354 125.312 389.188 128.812C383.021 132.271 375.729 134 367.312 134H348.312ZM354.812 134H342.688V43H354.812V134Z" fill="#ECECEC"/>
</svg>
